<svg xmlns="http://www.w3.org/2000/svg" width="192" height="192" viewBox="0 0 512 512">
  <defs>
    <filter id="glow" x="-30%" y="-30%" width="160%" height="160%">
      <feGaussianBlur in="SourceGraphic" stdDeviation="12" result="blur"/>
      <feColorMatrix in="blur" type="matrix" values="1 0 0 0 0  0.62 0 0 0 0  0.04 0 0 0 0  0 0 0 0.6 0"/>
      <feMerge><feMergeNode/><feMergeNode in="SourceGraphic"/></feMerge>
    </filter>
    <radialGradient id="bgAura" cx="50%" cy="48%" r="45%">
      <stop offset="0%" stop-color="#F59E0B" stop-opacity="0.12"/><stop offset="100%" stop-color="#F59E0B" stop-opacity="0"/>
    </radialGradient>
    <linearGradient id="flame" x1="0" y1="1" x2="0" y2="0">
      <stop offset="0%" stop-color="#D97706"/><stop offset="50%" stop-color="#F59E0B"/><stop offset="100%" stop-color="#FDE68A"/>
    </linearGradient>
    <linearGradient id="lens" x1="0" y1="0" x2="1" y2="1">
      <stop offset="0%" stop-color="#34D399"/><stop offset="100%" stop-color="#059669"/>
    </linearGradient>
  </defs>
  <rect width="512" height="512" rx="108" fill="#030712"/>
  <rect width="512" height="512" rx="108" fill="url(#bgAura)"/>
  <g opacity="0.3"><path d="M256,440 Q200,350 210,280 Q220,220 200,160 Q230,200 256,120 Q282,200 312,160 Q292,220 302,280 Q312,350 256,440Z" fill="url(#flame)"/></g>
  <g filter="url(#glow)">
    <polygon points="256,155 235,152 215,90 230,130 220,60 242,120 240,45 256,110 272,45 270,120 292,60 282,130 297,90 277,152" fill="#F59E0B"/>
    <ellipse cx="256" cy="175" rx="28" ry="26" fill="#F59E0B"/>
    <path d="M226,162 Q218,160 216,168 Q214,178 220,182" stroke="#059669" stroke-width="5" fill="none" stroke-linecap="round"/>
    <circle cx="222" cy="172" r="10" fill="url(#lens)" opacity="0.9"/>
    <circle cx="219" cy="169" r="3" fill="white" opacity="0.4"/>
    <rect x="247" y="198" width="18" height="16" rx="2" fill="#F59E0B"/>
    <path d="M218,214 L294,214 L288,220 L292,310 L282,316 L230,316 L220,310 L224,220Z" fill="#F59E0B"/>
    <polygon points="218,214 196,218 178,270 186,280 204,240 220,310" fill="#F59E0B"/>
    <circle cx="180" cy="276" r="12" fill="#F59E0B"/>
    <polygon points="294,214 316,218 334,270 326,280 308,240 292,310" fill="#F59E0B"/>
    <circle cx="332" cy="276" r="12" fill="#F59E0B"/>
    <polygon points="232,316 248,316 240,420 218,420" fill="#F59E0B"/>
    <polygon points="264,316 280,316 294,420 272,420" fill="#F59E0B"/>
    <path d="M212,416 L244,416 L246,432 Q246,440 238,440 L216,440 Q208,440 208,432Z" fill="#F59E0B"/>
    <path d="M268,416 L300,416 L302,432 Q302,440 294,440 L274,440 Q266,440 266,432Z" fill="#F59E0B"/>
  </g>
</svg>
